                    =!DK GROUP HD BLURAY RELEAESEES!=

=====================================================================================

The Forbidden Kingdom (2008)1080p BDRip In[Hindi-Eng-Tamil-Telgue]6Ch.Ac3 By !!!dip(Team-GPSOFT)

=====================================================================================


Storyline:


An American teenager who is obsessed with Hong Kong cinema and kung-fu classics makes an extraordinary discovery in a Chinatown pawnshop: the legendary stick weapon of the Chinese sage and warrior, the Monkey King. With the lost relic in hand, the teenager unexpectedly finds himself traveling back to ancient China to join a crew of warriors from martial arts lore on a dangerous quest to free the imprisoned Monkey King.


Cast:


Jet Li..............The Monkey King / The Silent Monk
Michael Angarano....Jason Tripitikas
Jackie Chan.........Lu Yan / Old Hop
Yifei Liu...........Golden Sparrow / Chinatown Girl
Collin Chou.........Jade Warlord
Juana Collignon.....Southie Girl
Morgan Benoit.......Lupo
Bingbing Li.........Ni Chang
Jack Posobiec.......Southie
Thomas McDonell.....Young Southie
Zhi Ma Gui..........Old Woman
Shen Shou He........Farmer
Bin Jiang...........Young Village Man
Shaohua Yang........Jade Soldier
Yu Yuan Zeng........Inn Keeper

Director: Rob Minkoff
Writer: John Fusco
Stars: Jackie Chan, Jet Li, Michael Angarano
Genres: Action | Adventure | Fantasy | Romance
Release Date: 18 April 2008 (USA)
Box Office
Budget: $55,000,000 (estimated)
Opening Weekend: ┬ú676,217 (UK) (11 July 2008)
Gross: ┬ú1,215,459 (UK) (18 July 2008)


Video Specifications:
Video
ID : 1
Format/Info : Advanced Video Codec
Duration : 1h 40mn
Bit rate : 3 141 Kbps
Width : 1 920 pixels
Height : 800 pixels
Display aspect ratio : 2.40:1
Frame rate mode : Variable
Frame rate : 25.000 fps
Color space : YUV
Chroma subsampling : 4:2:0
Bit depth : 8 bits
Scan type : Progressive
Bits/(Pixel*Frame) : 0.082
Stream size : 2.20 GiB (76%)
Team : DK Group HD Bluray Releases


Audio Specifications:

Audio #1
ID : 2
Format : AC-3
Format/Info : Audio Coding 3
Mode extension : CM (complete main)
Muxing mode : Header stripping
Codec ID : A_AC3
Duration : 1h 40mn
Bit rate mode : Constant
Bit rate : 448 Kbps
Channel(s) : 6 channels
Channel positions : Front: L C R, Side: L R, LFE
Sampling rate : 48.0 KHz
Bit depth : 16 bits
Compression mode : Lossy
Stream size : 321 MiB (11%)
Title : 448 kbps(6Ch.Ac3)
Language : Hindi

Audio #2
ID : 3
Format : AC-3
Format/Info : Audio Coding 3
Mode extension : CM (complete main)
Muxing mode : Header stripping
Codec ID : A_AC3
Duration : 1h 40mn
Bit rate mode : Constant
Bit rate : 448 Kbps
Channel(s) : 6 channels
Channel positions : Front: L C R, Side: L R, LFE
Sampling rate : 48.0 KHz
Bit depth : 16 bits
Compression mode : Lossy
Stream size : 321 MiB (11%)
Title : 448 kbps(6Ch.Ac3)
Language : English

Audio
ID : 4
Format : AC-3
Format/Info : Audio Coding 3
Mode extension : CM (complete main)
Muxing mode : Header stripping
Codec ID : A_AC3
Duration : 1h 40mn
Bit rate mode : Constant
Bit rate : 448 Kbps
Channel(s) : 6 channels
Channel positions : Front: L C R, Side: L R, LFE
Sampling rate : 48.0 KHz
Bit depth : 16 bits
Compression mode : Lossy
Stream size : 321 MiB
Title : 448 kbps(6ch.Ac3)
Language : Tamil

Audio
ID : 5
Format : AC-3
Format/Info : Audio Coding 3
Mode extension : CM (complete main)
Muxing mode : Header stripping
Codec ID : A_AC3
Duration : 1h 40mn
Bit rate mode : Constant
Bit rate : 448 Kbps
Channel(s) : 6 channels
Channel positions : Front: L C R, Side: L R, LFE
Sampling rate : 48.0 KHz
Bit depth : 16 bits
Compression mode : Lossy
Stream size : 321 MiB
Title : 448 kbps(6ch.Ac3)
Language : Telugu

Subtitle Language : English


IMBD-http://www.imdb.com/title/tt0865556/Ratings: 6.6/10


SAMPLE IMAGE:
   
http://www.shotpix.com/images/48492333403237941999.jpg
 
http://www.shotpix.com/images/27172625492761057079.jpg
 
http://www.shotpix.com/images/22468308761519419718.jpg
 
http://www.shotpix.com/images/69008161496265439264.jpg
 
http://www.shotpix.com/images/71498072941256407291.jpg


VIDEO SAMPLE IS AVAILABLE CHECK THE TORRENT:		